2D_gait_states
version=1
nRows=16
nColumns=39
inDegrees=yes

# SIMM Motion File Header:
name 2D_gait_states
datacolumns 39
datarows 16
otherdata 1
range 0.00000000 0.43752571
endheader
time	/hamstrings_r/activation	/bifemsh_r/activation	/glut_max_r/activation	/iliopsoas_r/activation	/rect_fem_r/activation	/vasti_r/activation	/gastroc_r/activation	/soleus_r/activation	/tib_ant_r/activation	/hamstrings_l/activation	/bifemsh_l/activation	/glut_max_l/activation	/iliopsoas_l/activation	/rect_fem_l/activation	/vasti_l/activation	/gastroc_l/activation	/soleus_l/activation	/tib_ant_l/activation	/jointset/groundPelvis/pelvis_tilt/value	/jointset/groundPelvis/pelvis_tilt/speed	/jointset/groundPelvis/pelvis_tx/value	/jointset/groundPelvis/pelvis_tx/speed	/jointset/groundPelvis/pelvis_ty/value	/jointset/groundPelvis/pelvis_ty/speed	/jointset/hip_l/hip_flexion_l/value	/jointset/hip_l/hip_flexion_l/speed	/jointset/hip_r/hip_flexion_r/value	/jointset/hip_r/hip_flexion_r/speed	/jointset/knee_l/knee_angle_l/value	/jointset/knee_l/knee_angle_l/speed	/jointset/knee_r/knee_angle_r/value	/jointset/knee_r/knee_angle_r/speed	/jointset/ankle_l/ankle_angle_l/value	/jointset/ankle_l/ankle_angle_l/speed	/jointset/ankle_r/ankle_angle_r/value	/jointset/ankle_r/ankle_angle_r/speed	/jointset/lumbar/lumbar/value	/jointset/lumbar/lumbar/speed
      0.00000000	      0.01000000	      0.01000000	      0.01000000	      0.01000000	      0.01000000	      0.01000000	      0.01000000	      0.01000000	      0.01000000	      0.01000000	      0.01000000	      0.01000000	      0.01000000	      0.01000000	      0.01000000	      0.01000000	      0.01000000	      0.01000000	      0.00000000	      0.00000000	      2.37100000	      0.00000000	      1.90100000	      0.00000000	      0.00000000	      0.00000000	      0.00000000	      0.00000000	      0.00000000	      0.00000000	      0.00000000	      0.00000000	      0.00000000	      0.00000000	      0.00000000	      0.00000000	      0.00000000	      0.00000000
      0.01000000	      0.00499291	      0.00499291	      0.00499291	      0.00499291	      0.00499291	      0.00499291	      0.00499291	      0.00499291	      0.00499291	      0.00499291	      0.00499291	      0.00499291	      0.00499291	      0.00499291	      0.00499291	      0.00499291	      0.00499291	      0.00499291	      0.00000000	      0.00000000	      2.37100000	      0.00000000	      1.90050967	     -0.09806650	     -0.00000000	     -0.00000000	     -0.00000000	     -0.00000000	      0.00000000	      0.00000000	      0.00000000	      0.00000000	     -0.00000000	     -0.00000000	     -0.00000000	     -0.00000000	     -0.00000000	     -0.00000000
      0.02259224	      0.00206346	      0.00206346	      0.00206346	      0.00206346	      0.00206346	      0.00206346	      0.00206346	      0.00206346	      0.00206346	      0.00206346	      0.00206346	      0.00206346	      0.00206346	      0.00206346	      0.00206346	      0.00206346	      0.00206346	      0.00206346	      0.00000000	      0.00000000	      2.37100000	      0.00000000	      1.89849730	     -0.22155421	     -0.00000000	     -0.00000000	     -0.00000000	     -0.00000000	      0.00000000	     -0.00000000	      0.00000000	      0.00000000	     -0.00000000	     -0.00000000	     -0.00000000	     -0.00000000	     -0.00000000	      0.00000000
      0.03518448	      0.00084884	      0.00084884	      0.00084884	      0.00084884	      0.00084884	      0.00084884	      0.00084884	      0.00084884	      0.00084884	      0.00084884	      0.00084884	      0.00084884	      0.00084884	      0.00084884	      0.00084884	      0.00084884	      0.00084884	      0.00084884	      0.00000000	      0.00000000	      2.37100000	      0.00000000	      1.89492994	     -0.34504192	     -0.00000000	     -0.00000000	     -0.00000000	     -0.00000000	      0.00000000	     -0.00000000	      0.00000000	      0.00000000	     -0.00000000	      0.00000000	     -0.00000000	     -0.00000000	      0.00000000	      0.00000000
      0.05305220	      0.00023955	      0.00023955	      0.00023955	      0.00023955	      0.00023955	      0.00023955	      0.00023955	      0.00023955	      0.00023955	      0.00023955	      0.00023955	      0.00023955	      0.00023955	      0.00023955	      0.00023955	      0.00023955	      0.00023955	      0.00023955	      0.00000000	     -0.00000000	      2.37100000	      0.00000000	      1.88719942	     -0.52026431	     -0.00000000	     -0.00000000	     -0.00000000	     -0.00000000	     -0.00000000	     -0.00000000	      0.00000000	      0.00000000	     -0.00000000	     -0.00000000	     -0.00000000	     -0.00000000	      0.00000000	      0.00000000
      0.07091991	      0.00006753	      0.00006753	      0.00006753	      0.00006753	      0.00006753	      0.00006753	      0.00006753	      0.00006753	      0.00006753	      0.00006753	      0.00006753	      0.00006753	      0.00006753	      0.00006753	      0.00006753	      0.00006753	      0.00006753	      0.00006753	      0.00000000	     -0.00000000	      2.37100000	      0.00000000	      1.87633807	     -0.69548670	     -0.00000000	     -0.00000000	     -0.00000000	     -0.00000000	     -0.00000000	     -0.00000000	      0.00000000	      0.00000000	     -0.00000000	     -0.00000000	     -0.00000000	     -0.00000000	      0.00000000	      0.00000000
      0.09897865	      0.00000769	      0.00000769	      0.00000769	      0.00000769	      0.00000769	      0.00000769	      0.00000769	      0.00000769	      0.00000769	      0.00000769	      0.00000769	      0.00000769	      0.00000769	      0.00000769	      0.00000769	      0.00000769	      0.00000769	      0.00000769	      0.00000000	      0.00000000	      2.37100000	      0.00000000	      1.85296324	     -0.97064895	     -0.00000000	     -0.00000000	     -0.00000000	     -0.00000000	     -0.00000000	     -0.00000000	      0.00000000	      0.00000000	     -0.00000000	      0.00000000	     -0.00000000	     -0.00000000	      0.00000000	      0.00000000
      0.13337073	     -0.00000005	     -0.00000005	     -0.00000005	     -0.00000005	     -0.00000005	     -0.00000005	     -0.00000005	     -0.00000005	     -0.00000005	     -0.00000005	     -0.00000005	     -0.00000005	     -0.00000005	     -0.00000005	     -0.00000005	     -0.00000005	     -0.00000005	     -0.00000005	      0.00000000	      0.00000000	      2.37100000	      0.00000000	      1.81378087	     -1.30792012	     -0.00000000	     -0.00000000	     -0.00000000	      0.00000000	     -0.00000000	     -0.00000000	      0.00000000	      0.00000000	      0.00000000	      0.00000000	     -0.00000000	     -0.00000000	      0.00000000	      0.00000000
      0.18962507	      0.00000011	      0.00000011	      0.00000011	      0.00000011	      0.00000011	      0.00000011	      0.00000011	      0.00000011	      0.00000011	      0.00000011	      0.00000011	      0.00000011	      0.00000011	      0.00000011	      0.00000011	      0.00000011	      0.00000011	      0.00000011	      0.00000000	     -0.00000000	      2.37100000	      0.00000000	      1.72468787	     -1.85958671	     -0.00000000	     -0.00000000	      0.00000000	      0.00000000	     -0.00000000	     -0.00000000	      0.00000000	      0.00000000	      0.00000000	      0.00000000	     -0.00000000	     -0.00000000	      0.00000000	      0.00000000
      0.29908982	     -0.00001044	     -0.00001044	     -0.00001044	     -0.00001044	     -0.00001044	     -0.00001044	     -0.00001044	     -0.00001044	     -0.00001044	     -0.00001044	     -0.00001044	     -0.00001044	     -0.00001044	     -0.00001044	     -0.00001044	     -0.00001044	     -0.00001044	     -0.00001044	     -0.00000000	     -0.00000000	      2.37100000	      0.00000000	      1.46237443	     -2.93306918	     -0.00000000	     -0.00000000	      0.00000000	      0.00000000	     -0.00000000	     -0.00000000	      0.00000000	      0.00000000	      0.00000000	      0.00000000	     -0.00000000	     -0.00000000	      0.00000000	      0.00000000
      0.33809345	      0.00000158	      0.00000158	      0.00000158	      0.00000158	      0.00000158	      0.00000158	      0.00000158	      0.00000158	      0.00000158	      0.00000158	      0.00000158	      0.00000158	      0.00000158	      0.00000158	      0.00000158	      0.00000158	      0.00000158	      0.00000158	     -0.00000000	     -0.00000000	      2.37100000	      0.00000000	      1.34051475	     -3.31556410	     -0.00000000	     -0.00000000	      0.00000000	      0.00000000	     -0.00000000	     -0.00000000	      0.00000000	     -0.00000000	      0.00000000	      0.00000000	     -0.00000000	     -0.00000000	      0.00000000	      0.00000000
      0.38859674	     -0.00000166	     -0.00000166	     -0.00000166	     -0.00000166	     -0.00000166	     -0.00000166	     -0.00000166	     -0.00000166	     -0.00000166	     -0.00000166	     -0.00000166	     -0.00000166	     -0.00000166	     -0.00000166	     -0.00000166	     -0.00000166	     -0.00000166	     -0.00000166	     -0.00000000	     -0.00000000	      2.37100000	      0.00000000	      1.16056150	     -3.81083224	     -0.00000000	     -0.00000000	      0.00000000	      0.00000000	     -0.00000000	     -0.00000000	      0.00000000	      0.00000000	      0.00000000	      0.00000000	     -0.00000000	     -0.00000000	      0.00000000	      0.00000000
      0.39618875	     -0.00000097	     -0.00000097	     -0.00000097	     -0.00000097	     -0.00000097	     -0.00000097	     -0.00000097	     -0.00000097	     -0.00000097	     -0.00000097	     -0.00000097	     -0.00000097	     -0.00000097	     -0.00000097	     -0.00000097	     -0.00000097	     -0.00000097	     -0.00000097	     -0.00000000	     -0.00000000	      2.37100000	      0.00000000	      1.13134700	     -3.88528445	     -0.00000000	     -0.00000000	      0.00000000	      0.00000000	     -0.00000000	     -0.00000000	      0.00000000	      0.00000000	      0.00000000	      0.00000000	     -0.00000000	     -0.00000000	      0.00000000	      0.00000000
      0.43414881	      0.00000011	      0.00000011	      0.00000011	      0.00000011	      0.00000011	      0.00000011	      0.00000011	      0.00000011	      0.00000011	      0.00000011	      0.00000011	      0.00000011	      0.00000011	      0.00000011	      0.00000011	      0.00000011	      0.00000011	      0.00000011	     -0.00000000	      0.00000091	      2.37100000	      0.00000000	      0.97679584	     -4.25754544	     -0.00000000	     -0.00000000	      0.00000000	      0.00000000	     -0.00000000	     -0.00000000	      0.00000000	      0.00000000	      0.00000000	      0.00000000	     -0.00000000	     -0.00000000	      0.00000000	      0.00000000
      0.43585356	      0.00000010	      0.00000010	      0.00000010	      0.00000010	      0.00000010	      0.00000010	      0.00000010	      0.00000010	      0.00000010	      0.00000010	      0.00000010	      0.00000010	      0.00000010	      0.00000010	      0.00000010	      0.00000010	      0.00000010	      0.00000010	      0.00000000	      0.00000433	      2.37100000	      0.00000000	      0.96952358	     -4.27426317	     -0.00000000	     -0.00000000	      0.00000000	      0.00000000	     -0.00000000	     -0.00000000	      0.00000000	      0.00000000	      0.00000000	      0.00000000	     -0.00000000	     -0.00000000	      0.00000000	      0.00000000
      0.43752571	      0.00000009	      0.00000009	      0.00000009	      0.00000009	      0.00000009	      0.00000009	      0.00000009	      0.00000009	      0.00000009	      0.00000009	      0.00000009	      0.00000009	      0.00000009	      0.00000009	      0.00000009	      0.00000009	      0.00000009	      0.00000009	      0.00000006	      0.00015826	      2.37100000	      0.00000005	      0.96236263	     -4.29065781	     -0.00000000	     -0.00000000	      0.00000000	      0.00000000	     -0.00000000	     -0.00000000	      0.00000000	      0.00000000	      0.00000000	      0.00000000	     -0.00000000	     -0.00000000	      0.00000000	      0.00000000
